<?xml version="1.0" encoding="UTF-8" standalone="no"?>
<!-- Created with Inkscape (http://www.inkscape.org/) -->

<svg
   width="71.702095mm"
   height="73.822723mm"
   viewBox="0 0 71.702095 73.822723"
   version="1.1"
   id="SVGRoot"
   sodipodi:docname="/tmp/ink_ext_XXXXXX.svgI7Z7S1"
   xmlns:inkscape="http://www.inkscape.org/namespaces/inkscape"
   xmlns:sodipodi="http://sodipodi.sourceforge.net/DTD/sodipodi-0.dtd"
   xmlns="http://www.w3.org/2000/svg"
   xmlns:svg="http://www.w3.org/2000/svg">
  <sodipodi:namedview
     id="namedview397"
     pagecolor="#ffffff"
     bordercolor="#666666"
     borderopacity="1.0"
     inkscape:showpageshadow="2"
     inkscape:pageopacity="0.0"
     inkscape:pagecheckerboard="0"
     inkscape:deskcolor="#d1d1d1"
     inkscape:document-units="mm"
     showgrid="false"
     inkscape:zoom="0.25"
     inkscape:cx="561.0"
     inkscape:cy="793.5"
     inkscape:window-width="1499"
     inkscape:window-height="991"
     inkscape:window-x="26"
     inkscape:window-y="23"
     inkscape:window-maximized="0"
     inkscape:current-layer="layer1" />
  <defs
     id="defs392" />
  <g
     inkscape:label="Layer 1"
     inkscape:groupmode="layer"
     id="layer1"
     transform="translate(-100.12882,-138.32415)">
    <path
       class="st0"
       d="m 171.77823,155.02598 c -0.008,-0.0344 -0.0291,-0.0635 -0.0397,-0.0979 -0.0238,-0.0609 -0.0423,-0.12436 -0.0741,-0.17992 -0.0212,-0.037 -0.0529,-0.0688 -0.0794,-0.10319 -0.0344,-0.045 -0.0635,-0.0952 -0.10318,-0.13494 -0.0344,-0.0344 -0.0767,-0.0582 -0.11377,-0.0873 -0.0423,-0.0344 -0.0794,-0.0714 -0.127,-0.0979 0,0 0,0 0,0 0,0 0,0 0,0 l -13.8774,-7.99042 c -0.35719,-0.20638 -0.7964,-0.20638 -1.15358,0 l -13.8774,7.99042 c 0,0 0,0 0,0 0,0 0,0 0,0 -0.0476,0.0265 -0.0847,0.0661 -0.127,0.0979 -0.037,0.0291 -0.0794,0.0529 -0.11377,0.0873 -0.0397,0.0397 -0.0688,0.09 -0.10319,0.13494 -0.0264,0.0344 -0.0582,0.0661 -0.0794,0.10319 -0.0317,0.0556 -0.0529,0.11906 -0.0741,0.17992 -0.0132,0.0318 -0.0318,0.0635 -0.0397,0.0979 -0.0265,0.0979 -0.0397,0.19844 -0.0397,0.30163 v 15.1765 l -11.56494,6.65956 v -29.69154 c 0,-0.10319 -0.0132,-0.20373 -0.0397,-0.30163 -0.008,-0.0344 -0.0291,-0.0635 -0.0397,-0.0979 -0.0238,-0.0609 -0.0423,-0.12436 -0.0741,-0.17992 -0.0212,-0.037 -0.0529,-0.0688 -0.0794,-0.10319 -0.0344,-0.045 -0.0635,-0.0952 -0.10319,-0.13494 -0.0344,-0.0344 -0.0767,-0.0582 -0.11377,-0.0873 -0.0423,-0.0344 -0.0794,-0.0714 -0.127,-0.0979 0,0 0,0 0,0 0,0 0,0 0,0 l -13.87739,-7.99042 c -0.35719,-0.20638 -0.7964,-0.20638 -1.15359,0 l -13.87739,7.99042 c 0,0 0,0 0,0 0,0 0,0 0,0 -0.0476,0.0265 -0.0847,0.0661 -0.127,0.0979 -0.037,0.0291 -0.0794,0.0529 -0.11377,0.0873 -0.0397,0.0397 -0.0688,0.09 -0.10319,0.13494 -0.0265,0.0344 -0.0582,0.0661 -0.0794,0.10319 -0.0317,0.0556 -0.0529,0.11906 -0.0741,0.17992 -0.0132,0.0318 -0.0318,0.0635 -0.0397,0.0979 -0.0265,0.0979 -0.0397,0.19844 -0.0397,0.30163 v 47.53504 c 0,0.41275 0.22225,0.79639 0.57944,1.00277 l 27.75744,15.98083 c 0.0609,0.0344 0.127,0.0556 0.1905,0.0794 0.0291,0.0106 0.0582,0.0291 0.09,0.037 0.0979,0.0265 0.19579,0.0397 0.29633,0.0397 0.10054,0 0.19844,-0.0132 0.29633,-0.0397 0.0265,-0.008 0.0503,-0.0238 0.0767,-0.0317 0.0688,-0.0238 0.13759,-0.0476 0.20109,-0.082 l 27.75743,-15.98084 c 0.35984,-0.20637 0.57944,-0.58737 0.57944,-1.00277 v -15.1765 l 13.29796,-7.65704 c 0.35983,-0.20637 0.57944,-0.58737 0.57944,-1.00277 v -15.84589 c -0.0132,-0.10319 -0.0291,-0.20373 -0.0529,-0.30163 z m -42.75667,38.65033 -11.54377,-6.53256 12.12321,-6.97971 c 0,0 0,0 0,0 l 13.30061,-7.65704 11.55435,6.65163 -8.47725,4.83923 z m 26.60386,-29.68889 v 13.17625 l -4.85775,-2.79665 -6.70984,-3.86291 v -13.17625 l 4.85775,2.79664 z m 1.15623,-15.31673 11.55964,6.65692 -11.55964,6.65691 -11.55965,-6.65691 z m -35.62086,33.68675 -4.85775,2.79664 v -29.02214 l 6.70984,-3.86292 4.85775,-2.79664 v 29.0195 z m -6.01398,-41.53958 11.55965,6.65691 -11.55965,6.65692 -11.55964,-6.65692 z m -12.72381,8.65452 4.85775,2.79664 6.70984,3.86292 v 31.01975 c 0,0 0,0.003 0,0.003 0,0 0,0.003 0,0.003 0,0.045 0.0132,0.0873 0.0185,0.12965 0.008,0.0556 0.008,0.11377 0.0238,0.16933 0,0 0,0.003 0,0.003 0.0132,0.045 0.037,0.0873 0.0556,0.12964 0.0212,0.0476 0.0344,0.10054 0.0609,0.14552 0,0 0,0.003 0.003,0.003 0.0238,0.0397 0.0582,0.0741 0.0873,0.11112 0.0317,0.0423 0.0582,0.0847 0.0952,0.12171 0,0 0.003,0.003 0.003,0.003 0.0317,0.0317 0.0741,0.0556 0.11112,0.0847 0.0423,0.0317 0.0794,0.0688 0.12436,0.0952 0.003,0 0.003,0 0.005,0.003 0.003,0 0.003,0.003 0.005,0.003 l 13.29267,7.5221 v 13.3059 l -25.45292,-14.64734 z m 53.20242,44.86539 -25.44498,14.64998 v -13.30854 l 18.84362,-10.75796 6.60136,-3.76766 z m 13.87739,-23.83366 -11.56493,6.65956 v -13.17625 l 6.70983,-3.86292 4.85775,-2.79664 v 13.17625 z"
       id="path4"
       style="fill:#ff2d20;stroke-width:0.264583"
       inkscape:export-filename="laravel.png"
       inkscape:export-xdpi="897.28"
       inkscape:export-ydpi="897.28" />
  </g>
</svg>
