<?xml version="1.0" encoding="UTF-8" standalone="no"?>
<svg
   width="226.8"
   height="139.20001"
   viewBox="0 0 226.8 139.20001"
   version="1.1"
   id="svg18"
   sodipodi:docname="rails.svg"
   xmlns:inkscape="http://www.inkscape.org/namespaces/inkscape"
   xmlns:sodipodi="http://sodipodi.sourceforge.net/DTD/sodipodi-0.dtd"
   xmlns="http://www.w3.org/2000/svg"
   xmlns:svg="http://www.w3.org/2000/svg">
  <defs
     id="defs22" />
  <sodipodi:namedview
     id="namedview20"
     pagecolor="#ffffff"
     bordercolor="#666666"
     borderopacity="1.0"
     inkscape:showpageshadow="2"
     inkscape:pageopacity="0.0"
     inkscape:pagecheckerboard="0"
     inkscape:deskcolor="#d1d1d1"
     showgrid="false" />
  <g
     fill="#cc0000"
     fill-rule="evenodd"
     transform="translate(0,-0.39999962)"
     id="g16">
    <path
       d="m 7,139.6 h 79 c 0,0 -15.1,-68.9 34.9,-96.8 10.9,-5.3 45.6,-25.1 102.4,16.9 1.8,-1.5 3.5,-2.7 3.5,-2.7 0,0 -52,-51.9 -109.9,-46.1 C 87.8,13.5 52,40 31,75 10,110 7,139.6 7,139.6 Z"
       id="path8" />
    <path
       d="m 7,139.6 h 79 c 0,0 -15.1,-68.9 34.9,-96.8 10.9,-5.3 45.6,-25.1 102.4,16.9 1.8,-1.5 3.5,-2.7 3.5,-2.7 0,0 -52,-51.9 -109.9,-46.1 C 87.8,13.5 52,40 31,75 10,110 7,139.6 7,139.6 Z"
       id="path10" />
    <path
       d="m 7,139.6 h 79 c 0,0 -15.1,-68.9 34.9,-96.8 10.9,-5.3 45.6,-25.1 102.4,16.9 1.8,-1.5 3.5,-2.7 3.5,-2.7 0,0 -52,-51.9 -109.9,-46.1 C 87.7,13.5 51.9,40 30.9,75 9.9,110 7,139.6 7,139.6 Z M 171.6,16.5 172,9.8 c -0.9,-0.5 -3.4,-1.7 -9.7,-3.5 l -0.4,6.6 c 3.3,1.1 6.5,2.3 9.7,3.6 z"
       id="path12" />
    <path
       d="m 162.1,37.7 -0.4,6.3 c 3.3,0.1 6.6,0.5 9.9,1.2 L 172,39 c -3.4,-0.7 -6.7,-1.1 -9.9,-1.3 z m -37,-31.2 h 1 l -2,-6.1 c -3.1,0 -6.3,0.2 -9.6,0.6 l 1.9,5.9 c 2.9,-0.3 5.8,-0.4 8.7,-0.4 z m 4.8,36.8 2.3,6.9 c 2.9,-1.4 5.8,-2.6 8.7,-3.5 l -2.2,-6.6 c -3.4,1 -6.3,2.1 -8.8,3.2 z M 84.5,17 80,10.1 c -2.5,1.3 -5.1,2.7 -7.8,4.3 l 4.6,7 c 2.6,-1.6 5.1,-3.1 7.7,-4.4 z m 20.5,45 4.8,7.2 c 1.7,-2.5 3.7,-4.8 5.9,-7.1 l -4.5,-6.8 c -2.3,2.1 -4.4,4.4 -6.2,6.7 z m -14.5,32.2 8.1,6.4 c 0.4,-3.9 1.1,-7.8 2.1,-11.7 l -7.2,-5.7 c -1.3,3.7 -2.2,7.4 -3,11 z M 46.7,46.7 39.6,40.5 C 37,43 34.5,45.5 32.2,48 l 7.7,6.6 c 2.1,-2.7 4.4,-5.4 6.8,-7.9 z M 16.5,91.4 5,87.2 c -1.9,4.3 -4,9.3 -5,12 l 11.5,4.2 c 1.3,-3.4 3.4,-8.3 5,-12 z M 89,119.6 c 0.2,5.3 0.7,9.6 1.2,12.6 l 12,4.3 c -0.9,-3.9 -1.8,-8.3 -2.4,-13 z"
       id="path14" />
  </g>
</svg>
